<?xml version="1.0" standalone="no"?>
<!DOCTYPE svg PUBLIC "-//W3C//DTD SVG 1.1//EN" "http://www.w3.org/Graphics/SVG/1.1/DTD/svg11.dtd">
<svg width="100%" height="100%" viewBox="0 0 46 44" version="1.1" xmlns="http://www.w3.org/2000/svg" xmlns:xlink="http://www.w3.org/1999/xlink" xml:space="preserve" style="fill-rule:evenodd;clip-rule:evenodd;stroke-linejoin:round;stroke-miterlimit:1.41421;">
    <g id="Layer_2">
        <path d="M23.1,44C22.9,44 22.7,44 22.5,43.9C22.3,43.9 22.1,43.8 22,43.8C5.8,40.1 0,26.4 0,14.7C0,10.9 1.1,4.1 5.2,2.2C5.8,1.9 6.5,1.8 7.2,1.8C8.7,1.8 10,2.5 11.2,3.1C11.9,3.5 12.7,3.9 13.1,3.9C13.6,3.9 14.2,3.6 15.4,2.8C17,1.6 19.2,0.2 22.6,0L23.5,0C26.7,0.1 28.9,1.6 30.6,2.7C31.8,3.5 32.3,3.8 32.9,3.8C33.3,3.8 34.2,3.4 34.8,3C36,2.4 37.3,1.7 38.8,1.7C39.5,1.7 40.2,1.8 40.8,2.1C44.9,4 46,10.8 46,14.6C46,26.2 40.3,39.9 24.2,43.7C23.9,43.9 23.5,44 23.1,44Z" style="fill:rgb(31,26,29);fill-rule:nonzero;"/>
        <path d="M23.1,12.6C15.3,12.6 7.6,14.2 3.5,15.9C4,32.3 15,39 23.1,40.8L23.3,40.8C31.5,39 42.5,32.3 43,15.9C38.9,14.2 31.1,12.6 23.1,12.6Z" style="fill:rgb(34,68,102);fill-rule:nonzero;stroke-width:1px;stroke:rgb(0,255,255);"/>
        <path d="M23.1,10.4C30.8,10.4 38.4,11.9 43,13.6C42.8,9.9 41.6,6 39.7,5.1C38,4.3 35.7,7 33.1,7C29.7,7 28.1,3.3 23.4,3.2L23.3,3.2L23.2,3.2C18.4,3.3 16.8,7 13.4,7C10.8,7 8.5,4.3 6.8,5.1C5,5.9 3.8,9.9 3.5,13.5C8.1,11.8 15.5,10.4 23.1,10.4Z" style="fill:rgb(255,119,0);fill-rule:nonzero;stroke-width:1px;stroke:rgb(255,255,170);"/>
    </g>
</svg>
