<?xml version="1.0" standalone="no"?>
<!DOCTYPE svg PUBLIC "-//W3C//DTD SVG 1.1//EN" "http://www.w3.org/Graphics/SVG/1.1/DTD/svg11.dtd">
<svg width="100%" height="100%" viewBox="0 0 50 43" version="1.1" xmlns="http://www.w3.org/2000/svg" xmlns:xlink="http://www.w3.org/1999/xlink" xml:space="preserve" style="fill-rule:evenodd;clip-rule:evenodd;stroke-linejoin:round;stroke-miterlimit:1.41421;">
    <path d="M25,42.6C24.4,42.6 23.9,42.4 23.4,42.1C23,42 22,41.9 21.2,41.8C14.9,40.8 0,36.5 0,13.6C0,9 1.8,3.4 5.6,2C6.2,1.8 6.8,1.7 7.4,1.7C8.9,1.7 10.1,2.3 11.4,2.8C12.3,3.2 13.3,3.6 14,3.6C14.9,3.6 15.7,3.2 17,2.4C18.8,1.4 21.3,0 25,0C28.7,0 31.2,1.4 33,2.4C34.3,3.1 35.1,3.6 36,3.6C36.7,3.6 37.7,3.2 38.6,2.8C39.8,2.3 41.1,1.7 42.6,1.7C43.2,1.7 43.9,1.8 44.4,2C48.2,3.4 50,9 50,13.6C50,36.5 35.1,40.8 28.8,41.8C28,41.9 27,42 26.6,42.2C26.1,42.5 25.6,42.6 25,42.6Z" style="fill:rgb(31,26,29);fill-rule:nonzero;"/>
    <g>
        <path d="M25,9.6C34,9.6 42.6,11.1 47,12.8C46.8,9.4 45.5,5.6 43.4,4.8C41.4,4 38.9,6.5 36,6.5C32.2,6.5 30.4,3 25,3C19.6,3 17.8,6.5 14,6.5C11.1,6.5 8.6,4 6.7,4.7C4.6,5.5 3.2,9.3 3.1,12.7C7.4,11.1 16,9.6 25,9.6Z" style="fill:rgb(255,119,0);fill-rule:nonzero;stroke-width:1px;stroke:rgb(255,255,170);"/>
        <path d="M25,11.6C15.8,11.6 6.8,13.3 3,14.9C3.7,38.8 22.4,37.6 25,39.6C27.6,37.6 46.3,38.8 47,14.9C43.2,13.3 34.2,11.6 25,11.6Z" style="fill:rgb(34,68,102);fill-rule:nonzero;stroke-width:1px;stroke:rgb(0,255,255);"/>
    </g>
</svg>
