<?xml version="1.0" standalone="no"?>
<!DOCTYPE svg PUBLIC "-//W3C//DTD SVG 1.1//EN" "http://www.w3.org/Graphics/SVG/1.1/DTD/svg11.dtd">
<svg width="100%" height="100%" viewBox="0 0 40 42" version="1.1" xmlns="http://www.w3.org/2000/svg" xmlns:xlink="http://www.w3.org/1999/xlink" xml:space="preserve" style="fill-rule:evenodd;clip-rule:evenodd;stroke-linejoin:round;stroke-miterlimit:1.41421;">
    <path d="M20,42C19.8,42 19.5,42 19.3,41.9C14.8,40.9 0,37.6 0,14.6C0,10.9 1,4.1 4.7,2.3C5.3,2 6,1.8 6.7,1.8C8.2,1.8 9.4,2.5 10.5,3.1C11,3.4 11.8,3.9 12.2,3.9C13,3.9 13.4,3.6 14.3,2.7C15.3,1.6 17,0 20,0C23,0 24.7,1.6 25.8,2.7C26.7,3.6 27.1,3.9 27.9,3.9C28.2,3.9 29.1,3.4 29.6,3.1C30.7,2.5 31.9,1.8 33.4,1.8C34.1,1.8 34.8,2 35.4,2.3C39,4.1 40,10.9 40,14.6C40,37.6 25.2,40.8 20.7,41.9C20.5,42 20.2,42 20,42Z" style="fill:rgb(31,26,29);fill-rule:nonzero;"/>
    <g>
        <path d="M20,11.3C25.9,11.3 33,11.9 37,13.4C36.8,9.7 35.7,5.8 34,4.9C32.4,4.1 30.3,6.8 27.9,6.8C23.9,6.8 23.6,2.9 20,2.9C16.4,2.9 16.1,6.8 12.1,6.8C9.7,6.9 7.6,4.1 6,4.9C4.3,5.8 3.2,9.7 3,13.4C7,11.9 14.1,11.3 20,11.3Z" style="fill:rgb(255,119,0);fill-rule:nonzero;stroke-width:1px;stroke:rgb(255,255,170);"/>
        <path d="M20,13.3C12.4,13.3 5.8,14.2 3,15.6C3.3,32.5 12.5,37.2 20,39C27.5,37.2 36.7,32.5 37,15.6C34.2,14.2 27.6,13.3 20,13.3Z" style="fill:rgb(34,68,102);fill-rule:nonzero;stroke-width:1px;stroke:rgb(0,255,255);"/>
    </g>
</svg>
