<?xml version="1.0" standalone="no"?>
<!DOCTYPE svg PUBLIC "-//W3C//DTD SVG 1.1//EN" "http://www.w3.org/Graphics/SVG/1.1/DTD/svg11.dtd">
<svg width="100%" height="100%" viewBox="0 0 37 30" version="1.1" xmlns="http://www.w3.org/2000/svg" xmlns:xlink="http://www.w3.org/1999/xlink" xml:space="preserve" style="fill-rule:evenodd;clip-rule:evenodd;stroke-linejoin:round;stroke-miterlimit:1.41421;">
    <g>
        <path d="M18.5,30L18.1,29.6C16.6,28 12.8,26.9 10.8,26.7C8.4,26.6 5.7,27.4 2.9,24.7C-1.4,20.3 -0.1,16.1 0.9,12.8C1.7,10.1 2.4,8 0.5,6.1L0.3,5.7L6.2,0L6.6,0.4C7.6,1.4 10.2,3.1 12,3.1C13.9,3.1 16.8,1.4 18.5,0.3L18.8,0.1L19,0.3C20.7,1.4 23.7,3.1 25.6,3.1C27.4,3.1 30,1.4 31,0.4L31.4,0L36.9,5.7L36.5,6.1C34.6,8.1 35.3,10.1 36.1,12.8C37.1,16.1 38.3,20.2 34.2,24.6C31.5,27.4 28.7,26.6 26.3,26.7C24.3,26.8 20.5,27.9 19,29.5L18.5,30Z" style="fill:rgb(255,255,170);fill-rule:nonzero;"/>
        <path d="M18.5,27.9C16.5,26.3 13,25.4 11,25.1L10.9,25.1L8.2,25.1C6.7,25.1 5.3,24.8 4,23.5C0.4,19.8 1.4,16.5 2.4,13.3L2.5,13C3.2,10.6 3.9,8.1 2.3,5.8L6.2,2.1C7.5,3.2 10,4.6 12,4.6C14.2,4.6 17,3 18.8,1.9C20.3,2.8 23.4,4.6 25.7,4.6C27.7,4.6 30.1,3.2 31.4,2.1L34.9,5.7C33.2,8.1 33.9,10.6 34.7,13L34.8,13.3C35.7,16.4 36.8,19.8 33.3,23.6C32,25 30.7,25.2 29.1,25.2L26.5,25.2C24.2,25.3 20.5,26.3 18.5,27.9Z" style="fill:rgb(255,119,0);fill-rule:nonzero;"/>
    </g>
</svg>
