<?xml version="1.0" standalone="no"?>
<!DOCTYPE svg PUBLIC "-//W3C//DTD SVG 1.1//EN" "http://www.w3.org/Graphics/SVG/1.1/DTD/svg11.dtd">
<svg width="100%" height="100%" viewBox="0 0 26 29" version="1.1" xmlns="http://www.w3.org/2000/svg" xmlns:xlink="http://www.w3.org/1999/xlink" xml:space="preserve" style="fill-rule:evenodd;clip-rule:evenodd;stroke-linejoin:round;stroke-miterlimit:1.41421;">
    <g>
        <path d="M13,27.1L12.7,26.8C11.5,25.5 10.1,25.4 8.6,25.2C6.8,25.1 4.6,25 2.4,22.7C-1,19 0,15.5 0.8,12.7C1.3,10.5 1.9,8.7 0.5,7.1L0.2,6.8L4.8,2L5.1,2.3C6,3.1 7.1,3.7 8.6,3.7C10.1,3.7 11.6,3.2 12.9,2.2L13.1,2L13.4,2.2C14.7,3.1 16.2,3.7 17.7,3.7C19.1,3.7 20.4,3.2 21.1,2.3L21.5,2L25.8,6.8L25.5,7.1C24,8.8 24.5,10.4 25.2,12.7C26,15.4 26.9,18.9 23.7,22.5C21.6,24.8 19.4,25 17.5,25.1C16,25.2 14.5,25.3 13.4,26.6L13,27.1Z" style="fill:rgb(51,204,119);fill-rule:nonzero;"/>
        <path d="M13,25C11.7,24 10.2,23.8 8.9,23.7L8.7,23.7C7,23.6 5.3,23.5 3.4,21.6C0.6,18.5 1.5,15.7 2.2,13.2L2.4,12.5C2.9,10.6 3.3,8.7 2.2,6.9L4.9,4.1C6,4.9 7.2,5.3 8.6,5.3C10.2,5.3 11.8,4.8 13.2,3.9C14.7,4.8 16.2,5.3 17.7,5.3C19.1,5.3 20.4,4.9 21.4,4.2L23.8,6.9C22.4,9 23.1,11.2 23.7,13.2C24.6,16 25.1,18.6 22.5,21.6C20.9,23.4 19.3,23.6 17.4,23.7C16.1,23.7 14.4,23.8 13,25Z" style="fill:rgb(204,255,85);fill-rule:nonzero;"/>
    </g>
</svg>
