<?xml version="1.0" standalone="no"?>
<!DOCTYPE svg PUBLIC "-//W3C//DTD SVG 1.1//EN" "http://www.w3.org/Graphics/SVG/1.1/DTD/svg11.dtd">
<svg width="100%" height="100%" viewBox="0 0 34 30" version="1.1" xmlns="http://www.w3.org/2000/svg" xmlns:xlink="http://www.w3.org/1999/xlink" xml:space="preserve" style="fill-rule:evenodd;clip-rule:evenodd;stroke-linejoin:round;stroke-miterlimit:1.41421;">
    <g>
        <path d="M17,30L16.6,29.6C15,28 13.2,27.9 11.2,27.7C8.8,27.6 6,27.4 3.1,24.7C-1.3,20.3 0,16.1 1.1,12.8C1.8,10.1 2.6,8 0.7,6.1L0.3,5.7L6.3,0L6.7,0.4C7.9,1.4 9.3,2.1 11.3,2.1C13.3,2.1 15.2,1.5 16.9,0.3L17.2,0.1L17.6,0.3C19.3,1.4 21.3,2.1 23.2,2.1C25,2.1 26.7,1.5 27.7,0.4L28.2,0L33.8,5.7L33.4,6.1C31.5,8.1 32.1,10.1 33,12.8C34.1,16.1 35.2,20.2 31.1,24.6C28.4,27.4 25.5,27.6 23,27.7C21,27.8 19.1,27.9 17.6,29.5L17,30Z" style="fill:rgb(51,204,119);fill-rule:nonzero;"/>
        <path d="M17,28C15.3,26.6 13.4,26.5 11.6,26.3L11.3,26.3C8.6,26.2 6.4,25.9 4.1,23.7C0.3,19.9 1.5,16.4 2.4,13.3L2.6,12.8C3.3,10.4 4,8 2.4,5.8L6.4,2.1C7.9,3.1 9.5,3.7 11.3,3.7C13.4,3.7 15.4,3.1 17.3,2C19.2,3.1 21.3,3.7 23.3,3.7C25.1,3.6 26.9,3 28.1,2.1L31.7,5.8C29.9,8.2 30.7,10.8 31.5,13.2L31.5,13.3C32.6,16.8 33.3,20 29.9,23.6C27.5,26 24.9,26.1 22.9,26.2C21,26.3 18.9,26.4 17,28Z" style="fill:rgb(204,255,85);fill-rule:nonzero;"/>
    </g>
</svg>
